HIERARCHY
ROOT Hips
{
	OFFSET 0.00000 0.00000 0.00000
	CHANNELS 6 Xposition Yposition Zposition Zrotation Yrotation Xrotation 
	JOINT LHipJoint
	{
		OFFSET 0 0 0
		CHANNELS 3 Zrotation Yrotation Xrotation
		JOINT LeftUpLeg
		{
			OFFSET 1.68708 -1.95465 0.44686
			CHANNELS 3 Zrotation Yrotation Xrotation
			JOINT LeftLeg
			{
				OFFSET 2.70941 -7.44405 0.00000
				CHANNELS 3 Zrotation Yrotation Xrotation
				JOINT LeftFoot
				{
					OFFSET 2.79200 -7.67096 0.00000
					CHANNELS 3 Zrotation Yrotation Xrotation
					JOINT LeftToeBase
					{
						OFFSET 0.16283 -0.44736 1.88537
						CHANNELS 3 Zrotation Yrotation Xrotation
						End Site
						{
							OFFSET 0.00000 -0.00000 0.97880
						}
					}
				}
			}
		}
	}
	JOINT RHipJoint
	{
		OFFSET 0 0 0
		CHANNELS 3 Zrotation Yrotation Xrotation
		JOINT RightUpLeg
		{
			OFFSET -1.74683 -1.95464 0.44686
			CHANNELS 3 Zrotation Yrotation Xrotation
			JOINT RightLeg
			{
				OFFSET -2.59506 -7.12988 0.00000
				CHANNELS 3 Zrotation Yrotation Xrotation
				JOINT RightFoot
				{
					OFFSET -2.83034 -7.77381 0.00000
					CHANNELS 3 Zrotation Yrotation Xrotation
					JOINT RightToeBase
					{
						OFFSET -0.14615 -0.40154 2.08760
						CHANNELS 3 Zrotation Yrotation Xrotation
						End Site
						{
							OFFSET -0.00000 -0.00000 1.07326
						}
					}
				}
			}
		}
	}
	JOINT LowerBack
	{
		OFFSET 0 0 0
		CHANNELS 3 Zrotation Yrotation Xrotation
		JOINT Spine
		{
			OFFSET -0.06719 1.86653 0.12233
			CHANNELS 3 Zrotation Yrotation Xrotation
			JOINT Spine1
			{
				OFFSET 0.03775 1.86572 0.09265
				CHANNELS 3 Zrotation Yrotation Xrotation
				JOINT Neck
				{
					OFFSET 0 0 0
					CHANNELS 3 Zrotation Yrotation Xrotation
					JOINT Neck1
					{
						OFFSET 0.05249 1.84505 -0.01104
						CHANNELS 3 Zrotation Yrotation Xrotation
						JOINT Head
						{
							OFFSET -0.16383 1.83237 -0.13558
							CHANNELS 3 Zrotation Yrotation Xrotation
							End Site
							{
								OFFSET -0.05531 1.86398 -0.05647
							}
						}
					}
				}
				JOINT LeftShoulder
				{
					OFFSET 0 0 0
					CHANNELS 3 Zrotation Yrotation Xrotation
					JOINT LeftArm
					{
						OFFSET 3.67445 1.40514 -0.06040
						CHANNELS 3 Zrotation Yrotation Xrotation
						JOINT LeftForeArm
						{
							OFFSET 5.78174 -0.00000 0.00000
							CHANNELS 3 Zrotation Yrotation Xrotation
							JOINT LeftHand
							{
								OFFSET 3.53992 -0.00000 0.00000
								CHANNELS 3 Zrotation Yrotation Xrotation
								JOINT LeftFingerBase
								{
									OFFSET 0 0 0
									CHANNELS 3 Zrotation Yrotation Xrotation
									JOINT LeftHandIndex1
									{
										OFFSET 0.55024 -0.00000 0.00000
										CHANNELS 3 Zrotation Yrotation Xrotation
										End Site
										{
											OFFSET 0.44362 -0.00000 0.00000
										}
									}
								}
								JOINT LThumb
								{
									OFFSET 0 0 0
									CHANNELS 3 Zrotation Yrotation Xrotation
									End Site
									{
										OFFSET 0.45039 -0.00000 0.45039
									}
								}
							}
						}
					}
				}
				JOINT RightShoulder
				{
					OFFSET 0 0 0
					CHANNELS 3 Zrotation Yrotation Xrotation
					JOINT RightArm
					{
						OFFSET -3.76648 1.20860 0.21069
						CHANNELS 3 Zrotation Yrotation Xrotation
						JOINT RightForeArm
						{
							OFFSET -5.79352 -0.00000 -0.00000
							CHANNELS 3 Zrotation Yrotation Xrotation
							JOINT RightHand
							{
								OFFSET -3.37081 -0.00000 0.00000
								CHANNELS 3 Zrotation Yrotation Xrotation
								JOINT RightFingerBase
								{
									OFFSET 0 0 0
									CHANNELS 3 Zrotation Yrotation Xrotation
									JOINT RightHandIndex1
									{
										OFFSET -0.67983 -0.00000 0.00000
										CHANNELS 3 Zrotation Yrotation Xrotation
										End Site
										{
											OFFSET -0.54809 -0.00000 0.00000
										}
									}
								}
								JOINT RThumb
								{
									OFFSET 0 0 0
									CHANNELS 3 Zrotation Yrotation Xrotation
									End Site
									{
										OFFSET -0.55646 -0.00000 0.55646
									}
								}
							}
						}
					}
				}
			}
		}
	}
}
MOTION
Frames: 13
Frame Time: .0083333
2.8095 17.8326 -27.0617 3.9868 -48.4067 12.9215 0.0000 0.0000 0.0000 -27.5191 -8.9172 -20.2752 2.2079 9.2864 26.6952 1.5367 -4.4389 -22.4160 1.8923 -8.6380 -24.6692 0.0000 0.0000 0.0000 10.2822 13.8611 -41.7468 -6.9808 -15.3157 48.8017 0.1988 -11.5782 -13.2721 -1.2415 7.0652 -19.9087 -6.2848 -0.6177 -4.5650 1.3304 -0.7669 -6.1237 4.9043 -0.1329 -3.7153 10.3572 13.2702 -0.2433 -12.9198 18.6500 7.8387 -4.5070 9.1039 4.5787 0.0000 0.0000 0.0000 -73.1584 18.1226 43.2131 56.4599 -55.2903 -31.4127 -0.0000 0.0000 -11.7991 21.9364 -10.2473 -4.0980 -7.1250 0.0000 -0.0000 -3.6058 18.9637 2.2428 0.0000 0.0000 0.0000 75.3458 -24.3362 47.2984 -27.1336 38.3063 -9.5818 0.0000 -0.0000 -11.2017 -10.4635 -26.3474 4.6857 7.1250 -0.0000 -0.0000 20.8694 -55.4677 -5.5372
2.7085 17.8352 -26.9806 3.7109 -48.0422 12.7884 0.0000 0.0000 0.0000 -27.3256 -9.2149 -19.2913 2.2037 9.2780 26.6690 1.6030 -4.6466 -22.8859 1.8171 -8.4743 -24.1642 0.0000 0.0000 0.0000 10.1225 14.3564 -41.3768 -6.4004 -14.8054 46.5682 0.1340 -11.2448 -13.8822 -0.8435 5.8580 -16.3729 -6.1787 -0.5833 -4.1363 1.5160 -0.7393 -6.0576 5.0439 -0.1126 -3.8884 10.0090 13.2340 -0.5405 -12.8502 18.6067 8.0743 -4.4165 9.0571 4.6550 0.0000 -0.0000 0.0000 -73.1669 17.8577 43.4758 57.6864 -55.6612 -32.4233 -0.0000 0.0000 -11.8567 21.6557 -10.0815 -3.9759 -7.1250 0.0000 -0.0000 -3.8006 19.1631 2.3476 0.0000 -0.0000 0.0000 75.3956 -24.2970 46.3860 -26.3817 37.5831 -9.1194 0.0000 -0.0000 -10.0143 -11.3771 -27.1998 5.2550 7.1250 -0.0000 -0.0000 20.4935 -56.4454 -5.9247
2.6196 17.8347 -26.9089 3.8258 -47.3123 12.7741 0.0000 0.0000 0.0000 -27.3151 -9.7637 -18.6553 2.1830 9.2373 26.5405 1.6368 -4.8286 -23.1126 1.7138 -8.2426 -23.4533 0.0000 0.0000 0.0000 9.6664 14.4757 -41.5065 -5.8190 -14.2506 44.2510 0.1296 -11.4369 -14.2743 -0.6900 5.3106 -14.7965 -6.0408 -0.6707 -4.0084 1.5054 -0.8657 -6.0825 4.9552 -0.1782 -3.9696 9.5882 13.1511 -0.7941 -12.5671 18.4654 8.1422 -4.2713 8.9749 4.6346 0.0000 0.0000 0.0000 -72.9227 17.5407 43.8420 59.1377 -56.0757 -33.6246 -0.0000 0.0000 -12.0582 21.8367 -9.5751 -3.8134 -7.1250 0.0000 -0.0000 -3.6593 19.6906 2.2168 0.0000 0.0000 0.0000 75.3153 -24.2994 46.3782 -26.1870 37.3928 -9.0010 0.0000 -0.0000 -10.0091 -11.4325 -27.7449 5.3782 7.1250 -0.0000 -0.0000 20.7938 -56.9655 -6.2823
2.5328 17.8183 -26.8739 3.9596 -46.5553 13.8605 0.0000 0.0000 0.0000 -27.0699 -9.7007 -19.5712 2.1350 9.1418 26.2398 1.5683 -5.9146 -22.4947 1.5331 -7.8170 -22.1597 0.0000 0.0000 0.0000 8.8906 15.1744 -42.7936 -5.2363 -13.6450 41.8337 0.1811 -12.1752 -14.6375 -0.6179 5.0308 -13.9963 -6.3304 -0.8155 -4.6629 1.5472 -1.0327 -6.4682 5.1567 -0.2428 -3.9878 9.3977 13.0343 -0.7538 -12.4429 18.2848 7.9872 -4.2346 8.8922 4.5309 0.0000 -0.0000 0.0000 -72.7073 17.1727 44.1877 60.3821 -56.4109 -34.6592 -0.0000 0.0000 -12.1630 22.2286 -9.2659 -3.7648 -7.1250 0.0000 -0.0000 -3.3716 19.9931 2.0191 0.0000 -0.0000 0.0000 75.1470 -24.6784 46.7249 -26.3880 37.5893 -9.1233 0.0000 -0.0000 -10.7305 -12.6195 -29.3878 6.2696 7.1250 -0.0000 -0.0000 20.7220 -58.7506 -7.1603
2.4148 17.8172 -26.7772 3.8156 -46.3648 13.2136 0.0000 0.0000 0.0000 -27.1330 -9.3333 -17.9448 2.0613 8.9926 25.7723 1.6095 -5.7844 -22.8094 1.4104 -7.5114 -21.2396 0.0000 0.0000 0.0000 8.7075 15.8419 -41.5568 -4.6536 -12.9827 39.3038 0.1672 -12.3515 -15.1644 -0.5629 4.8055 -13.3546 -6.2329 -0.7059 -4.2026 1.5815 -0.8999 -6.1829 5.1424 -0.1836 -3.9617 9.4191 12.9465 -0.7516 -12.6184 18.1740 7.8873 -4.3029 8.8349 4.5064 0.0000 0.0000 0.0000 -72.6181 16.9239 44.3737 61.3692 -56.6639 -35.4827 -0.0000 0.0000 -12.0285 22.3369 -9.0976 -3.7171 -7.1250 0.0000 -0.0000 -3.2898 20.1660 1.9572 0.0000 0.0000 0.0000 75.1243 -24.8848 46.8623 -26.4002 37.6012 -9.1308 0.0000 -0.0000 -11.3464 -13.4685 -30.7390 6.9791 7.1250 -0.0000 -0.0000 20.8590 -60.2001 -7.9390
2.2988 17.8228 -26.6802 3.7809 -46.0185 13.3849 0.0000 0.0000 0.0000 -27.0986 -9.4780 -17.1701 1.9838 8.8323 25.2722 1.6380 -5.8306 -23.0146 1.3079 -7.2446 -20.4421 0.0000 0.0000 0.0000 8.2065 16.3677 -41.3367 -4.0870 -12.2753 36.7131 0.1306 -12.2984 -15.6502 -0.4955 4.5132 -12.5252 -6.1187 -0.8058 -4.6203 1.5894 -1.0096 -6.1737 5.0779 -0.2534 -3.7021 9.7263 12.9295 -0.8503 -12.8972 18.1761 7.9779 -4.4170 8.8276 4.6051 0.0000 -0.0000 0.0000 -72.3974 16.9634 44.3937 62.4863 -56.9369 -36.4174 -0.0000 0.0000 -11.8779 22.5856 -9.4321 -3.8997 -7.1250 0.0000 -0.0000 -3.1205 19.7879 1.8826 0.0000 -0.0000 0.0000 75.2359 -24.7171 47.3621 -26.4196 37.6201 -9.1426 0.0000 -0.0000 -12.5092 -13.3393 -31.8165 7.1254 7.1250 -0.0000 -0.0000 21.8798 -61.1634 -8.8535
2.1861 17.8332 -26.5735 3.7676 -45.6947 13.1597 0.0000 0.0000 0.0000 -27.1850 -9.4443 -15.8846 1.8851 8.6224 24.6212 1.6749 -5.7980 -23.2856 1.2801 -7.1701 -20.2202 0.0000 0.0000 0.0000 7.7688 16.7893 -40.6296 -3.5359 -11.5158 34.0400 0.1499 -12.5919 -15.8285 -0.5019 4.5417 -12.6059 -5.8012 -0.7671 -4.6981 1.4723 -0.9567 -6.0630 4.7733 -0.2493 -3.5495 9.9984 12.9026 -0.8284 -13.0337 18.1552 8.0429 -4.4965 8.8194 4.6566 -0.0000 0.0000 0.0000 -71.9399 16.7067 44.7557 63.2730 -57.1208 -37.0775 -0.0000 0.0000 -11.8902 22.9103 -9.4844 -3.9837 -7.1250 0.0000 -0.0000 -2.8900 19.7065 1.7484 -0.0000 0.0000 0.0000 75.5140 -24.6823 46.4636 -25.6725 36.8835 -8.6904 0.0000 -0.0000 -10.9246 -10.0603 -29.0387 4.9219 7.1250 -0.0000 -0.0000 23.0863 -57.8693 -7.5358
2.0790 17.8351 -26.4860 3.8754 -45.3649 13.0230 0.0000 0.0000 0.0000 -27.2756 -9.3453 -14.9887 1.8017 8.4403 24.0595 1.6725 -5.8087 -23.2667 1.3371 -7.3218 -20.6722 0.0000 0.0000 0.0000 7.1589 17.3789 -40.1240 -3.0166 -10.7218 31.3473 0.2560 -13.3627 -15.4836 -0.6686 5.2289 -14.5626 -5.8392 -0.7397 -4.7239 1.4870 -0.9155 -6.0372 4.8104 -0.2281 -3.5128 10.0165 12.9362 -0.6472 -13.1788 18.2148 7.9008 -4.5520 8.8552 4.6060 0.0000 0.0000 0.0000 -71.7910 16.3195 45.0890 63.8610 -57.2540 -37.5716 -0.0000 0.0000 -11.9571 22.6478 -9.2681 -3.8444 -7.1250 0.0000 -0.0000 -3.0714 19.9596 1.8411 0.0000 0.0000 0.0000 75.2535 -25.0799 46.6227 -25.7514 36.9621 -8.7377 0.0000 -0.0000 -10.9552 -11.2294 -29.5544 5.5931 7.1250 -0.0000 -0.0000 22.2774 -58.5962 -7.6479
1.9772 17.8333 -26.4155 4.1355 -44.7714 13.0317 0.0000 0.0000 0.0000 -27.3315 -9.3865 -14.4680 1.7301 8.2797 23.5668 1.6229 -6.4285 -22.8599 1.1441 -6.7923 -19.1015 0.0000 0.0000 0.0000 6.3300 17.8686 -39.8545 -2.5302 -9.8925 28.6295 0.2752 -13.5512 -15.5150 -0.7475 5.5226 -15.4052 -6.1393 -0.8745 -4.7523 1.5571 -1.0891 -6.1187 5.0511 -0.2984 -3.5593 10.0021 12.9453 -0.4539 -13.3237 18.2333 7.6779 -4.6103 8.8729 4.5212 0.0000 -0.0000 0.0000 -71.8114 16.2198 45.2186 64.7108 -57.4399 -38.2872 -0.0000 0.0000 -12.0132 22.3804 -9.3685 -3.8348 -7.1250 0.0000 -0.0000 -3.2655 19.8716 1.9642 0.0000 -0.0000 0.0000 74.4158 -25.8261 48.0244 -26.7969 37.9848 -9.3738 0.0000 -0.0000 -11.9304 -13.0939 -31.2602 6.8823 7.1250 -0.0000 -0.0000 21.6745 -60.5930 -8.4708
1.8733 17.8273 -26.3418 4.2087 -44.2226 12.9673 0.0000 0.0000 0.0000 -27.2940 -9.3679 -13.7618 1.6750 8.1535 23.1814 1.5910 -6.7666 -22.6089 1.0532 -6.5256 -18.3173 0.0000 0.0000 0.0000 5.7055 18.3264 -39.2729 -2.0808 -9.0325 25.8969 0.2804 -13.6084 -15.5343 -0.7980 5.7017 -15.9213 -6.1675 -0.8810 -4.6220 1.5310 -1.1042 -6.1102 5.0413 -0.3027 -3.6216 9.6425 12.8243 -0.4340 -13.0404 18.0312 7.5177 -4.5037 8.7799 4.3857 -0.0000 -0.0000 0.0000 -71.6009 16.0223 45.5211 65.5382 -57.6136 -38.9852 -0.0000 0.0000 -11.9874 22.4880 -9.5055 -3.9108 -7.1250 0.0000 -0.0000 -3.1923 19.7163 1.9312 -0.0000 -0.0000 0.0000 75.2383 -25.6313 46.3991 -25.8268 37.0372 -8.7831 0.0000 -0.0000 -10.8722 -12.6225 -30.3305 6.4519 7.1250 -0.0000 -0.0000 21.4272 -59.6252 -7.8711
1.7589 17.8230 -26.2483 4.0772 -43.9976 12.7517 0.0000 0.0000 0.0000 -27.2374 -9.2543 -12.7519 1.6510 8.0979 23.0118 1.6342 -6.5046 -22.9377 1.2067 -6.9691 -19.6240 0.0000 0.0000 0.0000 5.3589 18.8981 -38.2457 -1.6678 -8.1368 23.1302 0.3428 -13.9194 -15.0871 -0.9908 6.3353 -17.7606 -5.9731 -0.7935 -4.5223 1.5232 -0.9901 -5.9773 4.9248 -0.2575 -3.5525 8.9094 12.8636 -0.3986 -12.3156 18.0175 7.3970 -4.1989 8.7843 4.2075 0.0000 0.0000 0.0000 -71.4460 15.8476 45.7247 66.1540 -57.7384 -39.5055 -0.0000 0.0000 -11.7659 22.5165 -9.6553 -3.9773 -7.1250 0.0000 -0.0000 -3.1762 19.5530 1.9330 0.0000 0.0000 0.0000 75.5811 -25.6713 45.9351 -25.4954 36.7060 -8.5843 0.0000 -0.0000 -11.2290 -12.5761 -30.5248 6.4646 7.1250 -0.0000 -0.0000 21.6277 -59.7939 -8.0368
1.6458 17.8125 -26.1563 3.9558 -44.0263 12.6390 0.0000 0.0000 0.0000 -27.2213 -9.1443 -11.8484 1.6132 8.0092 22.7419 1.6888 -5.9843 -23.3691 1.3369 -7.3211 -20.6702 0.0000 0.0000 0.0000 4.7827 19.9378 -37.2472 -1.2873 -7.1894 20.2778 0.4535 -14.5714 -14.4654 -1.1873 6.9148 -19.4632 -5.9156 -0.7508 -4.4916 1.6033 -0.9303 -5.8965 4.9769 -0.2311 -3.4915 8.2276 13.0834 -0.3807 -11.6231 18.2563 7.3089 -3.8883 8.9113 4.0762 0.0000 -0.0000 0.0000 -71.4694 15.7635 45.7384 66.4737 -57.8017 -39.7760 -0.0000 0.0000 -11.6799 22.6841 -10.0320 -4.1645 -7.1250 0.0000 -0.0000 -3.0685 19.1343 1.8959 0.0000 -0.0000 0.0000 75.2609 -25.5541 46.5205 -25.3546 36.5642 -8.5002 0.0000 -0.0000 -12.1054 -13.8840 -32.4888 7.5628 7.1250 -0.0000 -0.0000 21.8824 -61.9144 -9.2449
1.5612 17.7912 -26.1552 4.3641 -42.7706 13.5485 0.0000 0.0000 0.0000 -26.9364 -9.5157 -12.8054 1.5736 7.9149 22.4560 1.5561 -6.7219 -22.3541 1.4011 -7.4876 -21.1683 0.0000 0.0000 0.0000 2.9330 20.9877 -37.7549 -0.9467 -6.1968 17.3564 0.7143 -16.5353 -14.1373 -1.3171 7.2689 -20.5144 -6.6586 -1.1809 -4.4068 1.7593 -1.5214 -6.5086 5.5641 -0.4596 -4.1010 8.3735 13.1350 -0.6869 -11.7033 18.3545 7.6960 -3.8882 8.9387 4.2746 0.0000 0.0000 0.0000 -71.4717 15.7618 45.8118 66.7042 -57.8467 -39.9711 -0.0000 0.0000 -11.5389 22.9239 -10.2437 -4.3010 -7.1250 0.0000 -0.0000 -2.9054 18.8867 1.8109 0.0000 0.0000 0.0000 74.9700 -25.5835 46.9436 -25.2820 36.4908 -8.4570 0.0000 -0.0000 -12.5699 -17.0210 -36.5592 10.3342 7.1250 -0.0000 -0.0000 22.5646 -66.4636 -11.9346
